<?xml version="1.0" encoding="UTF-8" standalone="no"?>
<!-- Created with Inkscape (http://www.inkscape.org/) -->

<svg
   xmlns:dc="http://purl.org/dc/elements/1.1/"
   xmlns:cc="http://creativecommons.org/ns#"
   xmlns:rdf="http://www.w3.org/1999/02/22-rdf-syntax-ns#"
   xmlns:svg="http://www.w3.org/2000/svg"
   xmlns="http://www.w3.org/2000/svg"
   xmlns:sodipodi="http://sodipodi.sourceforge.net/DTD/sodipodi-0.dtd"
   xmlns:inkscape="http://www.inkscape.org/namespaces/inkscape"
   width="4"
   height="4"
   viewBox="0 0 4.0000001 4.0000001"
   id="svg2"
   version="1.1"
   inkscape:version="0.91 r13725"
   sodipodi:docname="sango.svg"
   inkscape:export-filename="/home/hsn6/AAA/Partikloj/sango.png"
   inkscape:export-xdpi="90"
   inkscape:export-ydpi="90">
  <defs
     id="defs4" />
  <sodipodi:namedview
     id="base"
     pagecolor="#ffffff"
     bordercolor="#666666"
     borderopacity="1.0"
     inkscape:pageopacity="0.0"
     inkscape:pageshadow="2"
     inkscape:zoom="89.6"
     inkscape:cx="2.5507423"
     inkscape:cy="2.8344641"
     inkscape:document-units="px"
     inkscape:current-layer="layer1"
     showgrid="false"
     units="px"
     inkscape:window-width="1024"
     inkscape:window-height="744"
     inkscape:window-x="0"
     inkscape:window-y="24"
     inkscape:window-maximized="1" />
  <metadata
     id="metadata7">
    <rdf:RDF>
      <cc:Work
         rdf:about="">
        <dc:format>image/svg+xml</dc:format>
        <dc:type
           rdf:resource="http://purl.org/dc/dcmitype/StillImage" />
        <dc:title></dc:title>
      </cc:Work>
    </rdf:RDF>
  </metadata>
  <g
     inkscape:label="Tavolo 1"
     inkscape:groupmode="layer"
     id="layer1"
     transform="translate(0,-1048.3622)">
    <path
       style="fill:#cc0000;fill-opacity:1;fill-rule:evenodd;stroke:#9a0000;stroke-width:0.06851813px;stroke-linecap:butt;stroke-linejoin:miter;stroke-opacity:1"
       d="m 0.65938627,1048.8862 c 0.29033722,-0.3078 0.69701333,0.6642 1.06727473,0.5844 0.3702577,-0.08 -0.042994,-1.0738 0.5872976,-0.9422 0.630295,0.1317 0.2734277,0.1357 0.3900387,0.5104 0.058307,0.1873 0.962679,0.1451 0.672916,0.595 -0.2392907,0.3714 0.5855836,0.5155 0.5888223,0.8034 -0.015473,0.595 -0.4089303,0.2882 -0.4282389,0.8809 -0.019304,0.5927 0.4019419,0.4971 0.2080017,0.7831 -0.1939393,0.2859 -1.1017742,-0.4843 -1.7741301,0.037 -0.672356,0.5209 -0.6133178,-0.1625 -1.27767273,-0.4731 -0.66435489,-0.3105 -0.15228496,-0.3865 0.0296664,-0.8606 0.0909945,-0.2371 -0.68602868,-0.6906 -0.68602868,-0.6906 0.05578449,-0.3709 0.47378975,-0.072 0.73442386,-0.2191 0.52126825,-0.2937 -0.40270618,-0.7007 -0.11236898,-1.0083 z"
       id="path4136"
       inkscape:connector-curvature="0"
       sodipodi:nodetypes="zzzssczzzzsssz"
       inkscape:export-xdpi="90"
       inkscape:export-ydpi="90" />
  </g>
</svg>
